<?xml version="1.0" encoding="UTF-8"?>
<svg version="1.1" xmlns="http://www.w3.org/2000/svg" width="1200" height="630">
<path d="M0 0 C396 0 792 0 1200 0 C1200 207.9 1200 415.8 1200 630 C804 630 408 630 0 630 C0 422.1 0 214.2 0 0 Z " fill="#2A074A" transform="translate(0,0)"/>
<path d="M0 0 C6.02715911 2.78903833 11.35368129 6.11528395 16.61328125 10.1328125 C17.47300537 10.78733398 17.47300537 10.78733398 18.35009766 11.45507812 C19.73109597 12.54496081 21.05353382 13.70826481 22.36328125 14.8828125 C22.36328125 15.5428125 22.36328125 16.2028125 22.36328125 16.8828125 C22.98332031 16.33753906 23.60335937 15.79226562 24.2421875 15.23046875 C29.64532262 10.62954583 35.10067792 6.6000259 41.17578125 2.9453125 C41.79718994 2.56834229 42.41859863 2.19137207 43.05883789 1.80297852 C51.11173952 -2.93218369 58.11824803 -4.02634147 67.36328125 -3.1171875 C73.16879547 -0.68942701 76.52435663 4.39915679 79.36328125 9.8828125 C80.717063 15.41856194 80.54732822 20.9038861 80.55078125 26.5703125 C80.56302734 27.60865234 80.57527344 28.64699219 80.58789062 29.71679688 C80.60035773 36.34514306 79.94461703 42.44368487 78.36328125 48.8828125 C79.19472656 48.98464844 80.02617188 49.08648437 80.8828125 49.19140625 C92.93705812 51.5860207 107.20131143 58.69186746 114.55078125 68.6953125 C117.18363596 73.54933918 117.09110223 78.51513279 116.36328125 83.8828125 C114.0716924 91.18725197 108.11126176 96.48693991 101.52734375 100.06640625 C97.52614372 102.12443197 93.4668787 104.03883678 89.36328125 105.8828125 C88.73180176 106.17849121 88.10032227 106.47416992 87.44970703 106.77880859 C84.09886584 108.30467792 82.12680931 108.8828125 78.36328125 108.8828125 C78.57984375 109.80320312 78.79640625 110.72359375 79.01953125 111.671875 C81.96321168 125.05471845 83.92111448 139.73443854 77.0390625 152.30078125 C74.12001526 156.50696743 71.37916816 159.39662378 66.36328125 160.8828125 C52.31591945 162.72234797 42.11216329 156.22820182 31.296875 148.1875 C28.36328125 145.8828125 28.36328125 145.8828125 26.7109375 144.015625 C25.4249324 142.68485125 25.4249324 142.68485125 23.546875 142.90234375 C20.44420828 144.29549106 18.02087842 146.41592903 15.42578125 148.5703125 C4.8208482 157.0600291 -6.8003619 162.34783852 -20.63671875 160.8828125 C-25.67185729 158.41101722 -29.3863729 155.08666088 -31.45678711 149.78149414 C-33.43140535 143.55828405 -34.11262286 137.9578318 -34.01171875 131.4453125 C-34.00591797 130.53241455 -34.00011719 129.6195166 -33.99414062 128.67895508 C-33.86744336 122.09245696 -33.0659069 116.05699904 -30.63671875 109.8828125 C-31.79171875 109.7178125 -32.94671875 109.5528125 -34.13671875 109.3828125 C-47.16430262 106.43977223 -60.69198797 98.56498598 -68.26171875 87.4453125 C-70.26591208 82.25262977 -70.78993859 77.28788173 -68.9765625 71.93359375 C-62.04614416 58.58278786 -47.11628518 52.49037339 -33.63671875 47.8828125 C-32.64671875 47.8828125 -31.65671875 47.8828125 -30.63671875 47.8828125 C-30.85328125 47.34398437 -31.06984375 46.80515625 -31.29296875 46.25 C-33.60227788 39.42898508 -33.96880103 32.89288313 -34.01171875 25.7578125 C-34.02525391 24.8282373 -34.03878906 23.89866211 -34.05273438 22.94091797 C-34.00464477 15.40821638 -33.0073884 7.70404297 -27.69921875 1.9453125 C-27.21582031 1.40003906 -26.73242188 0.85476562 -26.234375 0.29296875 C-18.95958657 -6.12805478 -8.0968991 -3.43068614 0 0 Z " fill="#F6F2F7" transform="translate(581.63671875,111.1171875)"/>
<path d="M0 0 C1.94326172 -0.03867187 1.94326172 -0.03867187 3.92578125 -0.078125 C8.24757859 0.29885421 10.1788718 0.67298906 13.6875 3.25 C16.34560796 6.73313182 18.51585082 10.4494666 20.6875 14.25 C21.26967285 15.2620752 21.8518457 16.27415039 22.45166016 17.31689453 C24.32938395 20.63357364 26.17063161 23.96903346 28 27.3125 C28.33632446 27.92450256 28.67264893 28.53650513 29.01916504 29.16705322 C41.93014989 52.66378267 54.41598884 76.41362369 66.6875 100.25 C67.05359375 100.94174316 67.4196875 101.63348633 67.796875 102.34619141 C69.15902821 105.25794326 69.11106484 107.04300904 68.6875 110.25 C66.55186824 115.21895994 64.3620778 119.33062766 59.6875 122.25 C56.3125 122.9375 56.3125 122.9375 52.6875 122.25 C47.80295594 117.8985407 44.82197117 111.21111234 41.6237793 105.59936523 C39.79515732 102.43622504 37.90574451 99.32379347 35.98046875 96.21875 C33.1473917 91.63670752 30.34668272 87.03709176 27.57421875 82.41796875 C18.24760257 66.83850252 18.24760257 66.83850252 8.4375 51.5625 C8.02072998 50.91627686 7.60395996 50.27005371 7.17456055 49.60424805 C5.27119913 46.82006954 4.15584306 45.39979129 0.890625 44.35546875 C0.16359375 44.32066406 -0.5634375 44.28585937 -1.3125 44.25 C-12.14966743 59.34362596 -21.60473261 75.33000013 -31.13061523 91.26928711 C-34.56092125 97.0090379 -38.03832828 102.71571061 -41.5625 108.3984375 C-43.79637349 112.03845457 -45.95038139 115.72342586 -48.0859375 119.421875 C-49.3125 121.25 -49.3125 121.25 -51.3125 122.25 C-57.84583333 122.48333333 -57.84583333 122.48333333 -60.3125 121.25 C-60.3125 120.59 -60.3125 119.93 -60.3125 119.25 C-60.9725 119.25 -61.6325 119.25 -62.3125 119.25 C-65.28358537 114.88621837 -67.23303977 111.32704118 -66.9296875 105.96484375 C-65.61274695 100.17197236 -62.51321107 95.04456446 -59.70800781 89.85742188 C-58.1338894 86.9162769 -56.60767051 83.95295786 -55.0859375 80.984375 C-49.15661027 69.4271127 -43.12857531 57.93081573 -36.86132812 46.55297852 C-34.10846483 41.55495962 -31.39783972 36.53852734 -28.734375 31.4921875 C-28.12335938 30.33984619 -27.51234375 29.18750488 -26.8828125 28.00024414 C-25.70941603 25.78423076 -24.54226072 23.56489581 -23.3828125 21.34155273 C-12.12275293 0.14389024 -12.12275293 0.14389024 0 0 Z " fill="#FCFAFC" transform="translate(434.3125,339.75)"/>
<path d="M0 0 C7.83899241 6.04621836 13.27540409 16.04238241 14.8671875 25.71875 C16.31526727 37.73190159 13.58209452 48.80531892 6.78125 58.77734375 C1.50389191 65.00832971 -4.92703012 70.19971224 -13.1328125 71.71875 C-21.65188049 72.37323759 -29.69725031 72.36098829 -37.1328125 67.71875 C-38.7828125 66.06875 -40.4328125 64.41875 -42.1328125 62.71875 C-42.4628125 73.60875 -42.7928125 84.49875 -43.1328125 95.71875 C-50.3928125 95.71875 -57.6528125 95.71875 -65.1328125 95.71875 C-65.1328125 62.71875 -65.1328125 29.71875 -65.1328125 -4.28125 C-57.8728125 -4.28125 -50.6128125 -4.28125 -43.1328125 -4.28125 C-42.8028125 -1.64125 -42.4728125 0.99875 -42.1328125 3.71875 C-41.648125 3.24824219 -41.1634375 2.77773438 -40.6640625 2.29296875 C-28.267461 -9.22156687 -14.39395533 -8.64691822 0 0 Z " fill="#F9F7FA" transform="translate(761.1328125,384.28125)"/>
<path d="M0 0 C21.45 0 42.9 0 65 0 C65 6.93 65 13.86 65 21 C51.14 21 37.28 21 23 21 C23 27.6 23 34.2 23 41 C35.54 41 48.08 41 61 41 C61 48.26 61 55.52 61 63 C48.46 63 35.92 63 23 63 C23 70.26 23 77.52 23 85 C36.86 85 50.72 85 65 85 C65 92.26 65 99.52 65 107 C43.55 107 22.1 107 0 107 C0 71.69 0 36.38 0 0 Z " fill="#FAF9FB" transform="translate(535,348)"/>
<path d="M0 0 C3.1875 1.8125 3.1875 1.8125 6 4 C6.64710938 4.48082031 7.29421875 4.96164062 7.9609375 5.45703125 C14.30804525 10.49460561 17.46157467 16.38472401 20 24 C20.30967865 27.68203991 20.32399097 31.36898237 20.375 35.0625 C20.43107422 36.56200195 20.43107422 36.56200195 20.48828125 38.09179688 C20.61283188 48.74087563 16.06923519 57.17834622 9 65 C1.2743779 72.46677394 -9.5610932 74.66112801 -19.99023438 74.53833008 C-30.1631976 74.05523601 -38.77974434 70.32803814 -46.0625 63.24609375 C-53.21216377 54.95767305 -56.39640972 46.59509342 -56.375 35.75 C-56.37338867 34.90606689 -56.37177734 34.06213379 -56.37011719 33.19262695 C-56.2439366 26.77659153 -55.27473824 21.60571511 -52 16 C-51.4225 14.96875 -50.845 13.9375 -50.25 12.875 C-37.83001882 -2.99497595 -18.76970373 -9.11671324 0 0 Z " fill="#FBF9FB" transform="translate(840,382)"/>
<path d="M0 0 C22.24277916 -2.55297322 22.24277916 -2.55297322 28.31103516 1.5703125 C32.27108393 5.8010009 34.74237744 10.70463399 37 16 C39.12038635 13.38485683 41.13091744 10.80362384 43 8 C43.66 8 44.32 8 45 8 C45.28875 7.236875 45.5775 6.47375 45.875 5.6875 C47 3 47 3 49 0 C51.61376953 -0.34057617 51.61376953 -0.34057617 54.8828125 -0.29296875 C56.04941406 -0.28330078 57.21601562 -0.27363281 58.41796875 -0.26367188 C59.64128906 -0.23853516 60.86460937 -0.21339844 62.125 -0.1875 C63.97158203 -0.16719727 63.97158203 -0.16719727 65.85546875 -0.14648438 C68.90407843 -0.11103543 71.951825 -0.06162079 75 0 C69.91960046 8.21736346 64.46566101 16.11393714 58.8671875 23.984375 C58.3937793 24.65791016 57.92037109 25.33144531 57.43261719 26.02539062 C56.47604958 27.34384986 55.48094143 28.63516808 54.45019531 29.89648438 C52.80681767 31.87682238 52.80681767 31.87682238 51 35 C51.67668879 39.55874551 55.31235429 43.37627859 58.0625 47 C59.05601167 48.33234694 60.04817641 49.66569922 61.0390625 51 C61.53567383 51.66773438 62.03228516 52.33546875 62.54394531 53.0234375 C64.72362551 55.98230585 66.84132638 58.98158152 68.9375 62 C69.62714844 62.99 70.31679688 63.98 71.02734375 65 C73.1738552 68.26439761 75.0947346 71.59012903 77 75 C55.06172902 78.03367648 55.06172902 78.03367648 48.52490234 73.15136719 C44.47598937 68.5738382 41.58226762 63.3795797 39.0078125 57.85766602 C38.13733717 55.82994991 38.13733717 55.82994991 36 55 C35.77441406 55.67546875 35.54882812 56.3509375 35.31640625 57.046875 C33.63463888 60.81962317 31.37245051 63.92992604 28.9375 67.25 C28.47794922 67.88679688 28.01839844 68.52359375 27.54492188 69.1796875 C24.19148166 73.80851834 24.19148166 73.80851834 23 75 C21.14630389 75.08737645 19.28932459 75.10698153 17.43359375 75.09765625 C16.30888672 75.09443359 15.18417969 75.09121094 14.02539062 75.08789062 C12.84138672 75.07951172 11.65738281 75.07113281 10.4375 75.0625 C9.24962891 75.05798828 8.06175781 75.05347656 6.83789062 75.04882812 C3.89187774 75.03699675 0.94596319 75.02051287 -2 75 C1.68277327 67.48413618 6.77013482 60.71721711 11.60546875 53.90625 C12.23614258 53.01550781 12.86681641 52.12476563 13.51660156 51.20703125 C14.78519383 49.41926422 16.05918981 47.63531793 17.33886719 45.85546875 C17.92700195 45.02660156 18.51513672 44.19773437 19.12109375 43.34375 C19.6514624 42.60318359 20.18183105 41.86261719 20.72827148 41.09960938 C22.4911378 38.18913706 23.21559592 36.10877904 22.5625 32.75 C22.376875 32.1725 22.19125 31.595 22 31 C21.34 31 20.68 31 20 31 C18.40959055 28.84377181 16.943783 26.68971301 15.5 24.4375 C14.6070651 23.06881839 13.71382659 21.70033482 12.8203125 20.33203125 C12.35915039 19.62127441 11.89798828 18.91051758 11.42285156 18.17822266 C10.00445362 16.00681797 8.56538694 13.85084342 7.1171875 11.69921875 C6.42786133 10.67453491 6.42786133 10.67453491 5.72460938 9.62915039 C4.8336413 8.3060757 3.94173281 6.98363374 3.04882812 5.66186523 C0 1.1113297 0 1.1113297 0 0 Z " fill="#FBF9FB" transform="translate(610,380)"/>
<path d="M0 0 C1.35130874 -0.09856168 2.70555795 -0.16126331 4.06005859 -0.1940918 C4.78294571 -0.22720459 5.50583282 -0.26031738 6.25062561 -0.29443359 C8.57180858 -0.37484953 10.8859855 -0.39394104 13.20849609 -0.39331055 C13.98971832 -0.39817474 14.77094055 -0.40303894 15.57583618 -0.40805054 C30.25089254 -0.35726653 30.25089254 -0.35726653 34.80615234 3.82543945 C37.14211639 6.88961401 38.56295195 10.22650483 39.81396484 13.85327148 C40.59476977 15.94945526 41.54966777 17.72413155 42.70849609 19.6340332 C47.6434814 27.79358278 47.6434814 27.79358278 47.45068359 31.41137695 C45.54746423 36.91528161 42.46318951 41.87904488 39.58349609 46.91918945 C39.23770508 47.53084961 38.89191406 48.14250977 38.53564453 48.77270508 C37.50519415 50.58148453 36.45479133 52.37688092 35.39599609 54.16918945 C34.76306641 55.2468457 34.13013672 56.32450195 33.47802734 57.43481445 C31.31571299 60.2703442 30.95303164 60.39081662 27.58349609 60.91918945 C23.2860426 61.1827755 18.98842967 61.23188437 14.68408203 61.26928711 C13.28352289 61.28589067 11.88304999 61.31323924 10.48291016 61.35131836 C8.45349667 61.40612873 6.42605008 61.42795512 4.39599609 61.44262695 C2.58035156 61.47235596 2.58035156 61.47235596 0.72802734 61.50268555 C-2.41650391 60.91918945 -2.41650391 60.91918945 -4.71948242 58.57275391 C-5.27949951 57.69707764 -5.8395166 56.82140137 -6.41650391 55.91918945 C-7.06490234 54.93563477 -7.71330078 53.95208008 -8.38134766 52.9387207 C-10.42528013 49.61581267 -12.43644449 46.28059467 -14.41650391 42.91918945 C-14.96564453 41.98719727 -15.51478516 41.05520508 -16.08056641 40.0949707 C-16.54205078 39.25321289 -17.00353516 38.41145508 -17.47900391 37.54418945 C-17.88248047 36.81458008 -18.28595703 36.0849707 -18.70166016 35.33325195 C-19.95474488 31.1015232 -19.22709216 27.64035537 -17.35961914 23.67504883 C-16.00104101 21.19502805 -14.57166344 18.77367598 -13.10400391 16.35668945 C-12.61738281 15.53233398 -12.13076172 14.70797852 -11.62939453 13.85864258 C-10.24660684 11.53042266 -8.85285219 9.21477964 -7.41650391 6.91918945 C-6.57236938 5.32953369 -6.57236938 5.32953369 -5.71118164 3.70776367 C-3.41650391 0.91918945 -3.41650391 0.91918945 0 0 Z " fill="#230A3D" transform="translate(591.41650390625,159.080810546875)"/>
<path d="M0 0 C2.19751127 12.16479452 3.91943949 24.26133748 -1 36 C-3.20454323 38.87258663 -4.56680311 39.67303493 -8.0546875 40.46875 C-18.30484639 41.40974819 -27.61615466 35.14975975 -35.25439453 28.93115234 C-37.54336458 26.99804507 -39.78449623 25.01667651 -42 23 C-40.65906842 21.20032867 -39.30909855 19.40706887 -37.9296875 17.63671875 C-35.89390307 14.94341385 -35.89390307 14.94341385 -34.0078125 11.64453125 C-28.56753566 2.9019663 -28.56753566 2.9019663 -23.83447266 1.23925781 C-18.58291432 0.17578759 -13.34075526 0.10756808 -8 0 C-4.71023192 -1.09658936 -3.28696233 -0.79953138 0 0 Z " fill="#21073A" transform="translate(653,224)"/>
<path d="M0 0 C1.31787109 1.85424805 1.31787109 1.85424805 2.2734375 4.26171875 C2.62277344 5.13376953 2.97210937 6.00582031 3.33203125 6.90429688 C3.67621094 7.82275391 4.02039063 8.74121094 4.375 9.6875 C4.74238281 10.58662109 5.10976563 11.48574219 5.48828125 12.41210938 C8.53731191 20.25329576 7.68451346 24.71214756 4.625 32.5 C4.20476563 33.5828125 3.78453125 34.665625 3.3515625 35.78125 C2.02881277 38.93138229 0.56400545 41.96345141 -1 45 C-12.53942975 43.39540474 -23.68479303 37.83376375 -31.5625 29.1875 C-34.17249147 25.21577386 -34.62092119 22.81213922 -34 18 C-28.50607642 8.80210859 -10.91504804 -3.604178 0 0 Z " fill="#21073B" transform="translate(554,168)"/>
<path d="M0 0 C3.36404919 2.57671853 5.39301158 5.11290892 7 9 C7.25878906 11.42260742 7.25878906 11.42260742 7.265625 14.10546875 C7.26949219 15.58176758 7.26949219 15.58176758 7.2734375 17.08789062 C7.26570312 18.11076172 7.25796875 19.13363281 7.25 20.1875 C7.26160156 21.69280273 7.26160156 21.69280273 7.2734375 23.22851562 C7.25722514 29.45811326 6.57740739 34.97205034 5 41 C-17.82671026 40.76519573 -17.82671026 40.76519573 -24.44921875 34.4140625 C-27.76446274 30.56496639 -30.48692391 26.40538316 -33 22 C-33.60070312 21.00742188 -34.20140625 20.01484375 -34.8203125 18.9921875 C-35.20960938 18.33476562 -35.59890625 17.67734375 -36 17 C-13.85267186 -2.22632226 -13.85267186 -2.22632226 0 0 Z " fill="#240740" transform="translate(647,116)"/>
<path d="M0 0 C1.09054687 0.09087891 1.09054687 0.09087891 2.203125 0.18359375 C3.71132813 0.30927734 3.71132813 0.30927734 5.25 0.4375 C6.33925781 0.53289062 7.42851563 0.62828125 8.55078125 0.7265625 C10.79552983 0.90451539 13.04346187 1.04703624 15.29296875 1.1484375 C16.33066406 1.20257813 17.36835937 1.25671875 18.4375 1.3125 C19.38496094 1.34988281 20.33242188 1.38726562 21.30859375 1.42578125 C27.50323466 2.74742452 31.0571532 8.24210035 34.75 13 C35.24371094 13.61617187 35.73742187 14.23234375 36.24609375 14.8671875 C36.71660156 15.46789062 37.18710937 16.06859375 37.671875 16.6875 C38.0956543 17.22761719 38.51943359 17.76773438 38.95605469 18.32421875 C40.11945168 20.19174843 40.57535035 21.85218526 41 24 C31.44369 32.04006875 20.23818533 40.95808516 7.046875 40.48046875 C5 40 5 40 2.0625 37.375 C-4.90208162 25.97841189 -1.79019159 12.59527651 0 0 Z " fill="#1F0538" transform="translate(558,224)"/>
<path d="M0 0 C10.95259615 2.20253305 20.04965933 9.50526625 28 17 C26.35510648 20.86596444 23.76937366 23.84393374 21.0625 27 C17.67366418 30.89100764 17.67366418 30.89100764 14.70947266 35.10058594 C12.38094778 37.6878358 10.65212688 37.78040836 7.23828125 38.265625 C5.56088867 38.51699219 5.56088867 38.51699219 3.84960938 38.7734375 C2.68236328 38.93070313 1.51511719 39.08796875 0.3125 39.25 C-0.86634766 39.42273438 -2.04519531 39.59546875 -3.25976562 39.7734375 C-6.17131525 40.19779291 -9.08422024 40.60595003 -12 41 C-14.15650658 34.04167211 -15.53041805 27.66868928 -15.4375 20.375 C-15.43210205 19.55394775 -15.4267041 18.73289551 -15.42114258 17.88696289 C-15.27519934 12.09018972 -14.68559403 6.72101175 -11 2 C-7.2305921 -0.5129386 -4.35551419 -0.47292799 0 0 Z " fill="#23073F" transform="translate(571,116)"/>
<path d="M0 0 C12.46343408 2.79691237 23.11249467 7.62695399 32 17 C33.63668361 20.27336722 33.65257236 23.47482969 33 27 C28.02936916 36.08752738 16.35296457 41.69352943 7 45 C4.67479175 45.38595616 2.34163888 45.73114517 0 46 C-0.39832031 44.91460937 -0.79664063 43.82921875 -1.20703125 42.7109375 C-1.74200903 41.26555893 -2.27717531 39.82025012 -2.8125 38.375 C-3.07353516 37.66214844 -3.33457031 36.94929688 -3.60351562 36.21484375 C-4.83369421 32.90399275 -6.07835583 29.85524973 -7.765625 26.73828125 C-9 24 -9 24 -8.77734375 21.83203125 C-8.50019531 21.16558594 -8.22304688 20.49914062 -7.9375 19.8125 C-7.48890625 18.67167969 -7.48890625 18.67167969 -7.03125 17.5078125 C-6.52078125 16.26644531 -6.52078125 16.26644531 -6 15 C-5.30754241 13.06426629 -4.62010852 11.12672874 -3.9375 9.1875 C-2.79531144 6.00863786 -1.56941177 2.9923451 0 0 Z " fill="#21063B" transform="translate(657,167)"/>
<path d="M0 0 C1.625 0.828125 1.625 0.828125 3.875 2.328125 C3.875 2.988125 3.875 3.648125 3.875 4.328125 C4.865 4.658125 5.855 4.988125 6.875 5.328125 C10.22430624 9.7191887 11.59264575 14.61993252 11.328125 20.08984375 C10.2668063 25.33239217 7.17385181 29.09421578 3.375 32.703125 C-1.52481461 35.88800449 -5.23850137 36.91677486 -11.125 36.328125 C-18.03005285 34.34677822 -21.53387307 31.50037442 -25.125 25.328125 C-27.0475412 19.5605014 -27.14586212 13.44837709 -24.5 7.953125 C-17.6356893 0.36625528 -10.42014878 -3.29460586 0 0 Z " fill="#21083B" transform="translate(744.125,399.671875)"/>
<path d="M0 0 C0.33 0 0.66 0 1 0 C1.33 1.98 1.66 3.96 2 6 C4.16343011 3.96731398 4.16343011 3.96731398 6 1 C6.66 1.33 7.32 1.66 8 2 C8 4.64 8 7.28 8 10 C8.33 8.02 8.66 6.04 9 4 C9.99 4.33 10.98 4.66 12 5 C12 5.99 12 6.98 12 8 C14.31 8.33 16.62 8.66 19 9 C18.67 10.32 18.34 11.64 18 13 C20.475 13.495 20.475 13.495 23 14 C22.91621094 14.62648438 22.83242187 15.25296875 22.74609375 15.8984375 C22.64425781 16.71570313 22.54242187 17.53296875 22.4375 18.375 C22.28087891 19.59316406 22.28087891 19.59316406 22.12109375 20.8359375 C21.81762672 23.04899186 21.81762672 23.04899186 23 25 C22.36328125 26.91015625 22.36328125 26.91015625 21.3125 29.0625 C20.97863281 29.77535156 20.64476562 30.48820313 20.30078125 31.22265625 C19 33 19 33 16.98046875 33.80859375 C15 34 15 34 13 33 C12.67 33.99 12.34 34.98 12 36 C11.34 36 10.68 36 10 36 C9.566875 36.928125 9.566875 36.928125 9.125 37.875 C8 40 8 40 6 42 C5.34 42 4.68 42 4 42 C4 41.01 4 40.02 4 39 C2.68 39.66 1.36 40.32 0 41 C-0.37125 40.54625 -0.7425 40.0925 -1.125 39.625 C-3.54264685 37.52970606 -5.95430602 36.87986715 -9 36 C-9 34.35 -9 32.7 -9 31 C-10.98 31.99 -10.98 31.99 -13 33 C-13.33 32.34 -13.66 31.68 -14 31 C-14.66 30.67 -15.32 30.34 -16 30 C-15.979375 28.88625 -15.95875 27.7725 -15.9375 26.625 C-15.73619282 23.16784079 -15.73619282 23.16784079 -17 21 C-16.55885904 16.41213407 -15.58162127 12.32309813 -14 8 C-11.69 8.33 -9.38 8.66 -7 9 C-7 7.68 -7 6.36 -7 5 C-5.5459375 4.5978125 -5.5459375 4.5978125 -4.0625 4.1875 C-3.051875 3.795625 -2.04125 3.40375 -1 3 C-0.67 2.01 -0.34 1.02 0 0 Z " fill="#3D0E68" transform="translate(1037,558)"/>
<path d="M0 0 C5.44392463 2.41364943 9.04077021 6.42060142 11.37890625 11.85546875 C12.85000627 16.93492732 12.61763534 21.3096296 10.8125 26.25 C7.11721869 31.85663371 3.42018298 34.89683661 -3 37 C-7.8067991 37.60084989 -11.17869073 37.06403776 -15.2890625 34.3671875 C-19.85708844 30.71693846 -22.59233608 27.52460445 -23.546875 21.61328125 C-23.78423531 15.40894647 -23.80644062 10.08253198 -19.46484375 5.33203125 C-18.98144531 4.89246094 -18.49804688 4.45289063 -18 4 C-17.154375 3.195625 -16.30875 2.39125 -15.4375 1.5625 C-10.26000654 -0.79090612 -5.58464267 -0.95276056 0 0 Z " fill="#22083C" transform="translate(828,399)"/>
<path d="M0 0 C3.3950652 2.73491364 6.28344512 5.87939023 8.25 9.8125 C8.79574534 16.14314596 7.98261263 20.58684232 4.25 25.8125 C1.3703238 29.12533084 -1.28503399 30.56966596 -5.625 31.2890625 C-11.34575596 31.56079841 -15.91203573 31.26883093 -20.34765625 27.4296875 C-23.80730038 23.44001433 -25.47812213 19.50418449 -26.3125 14.3125 C-25.37369965 8.47107562 -22.13241347 3.74866249 -17.75 -0.1875 C-11.83215487 -3.00552149 -5.92687108 -2.55933069 0 0 Z " fill="#F8F6F9" transform="translate(613.75,175.1875)"/>
<path d="M0 0 C1.65 0.66 3.3 1.32 5 2 C5.33 1.34 5.66 0.68 6 0 C8.475 0.495 8.475 0.495 11 1 C11 3.97 11 6.94 11 10 C11.0825 9.21625 11.165 8.4325 11.25 7.625 C12 5 12 5 14.0625 3.6875 C14.701875 3.460625 15.34125 3.23375 16 3 C16.495 3.495 16.495 3.495 17 4 C18.99958364 4.04080783 21.00045254 4.04254356 23 4 C23.495 5.485 23.495 5.485 24 7 C23.67 7.66 23.34 8.32 23 9 C23.99 9 24.98 9 26 9 C26.33 7.68 26.66 6.36 27 5 C27.969375 4.87625 28.93875 4.7525 29.9375 4.625 C30.948125 4.41875 31.95875 4.2125 33 4 C33.33 3.34 33.66 2.68 34 2 C37.53586014 5.17320782 39.58578031 7.16743695 40 12 C38.35 12.33 36.7 12.66 35 13 C35.495 15.475 35.495 15.475 36 18 C35.01 18.66 34.02 19.32 33 20 C30 18 27 16 24 14 C24.495 15.98 24.495 15.98 25 18 C21.1588382 18.70551951 18.1345263 19.02017894 14.25 18.4375 C10.85920582 17.61665659 10.85920582 17.61665659 8 20 C7.01 18.68 6.02 17.36 5 16 C4.67 16.66 4.34 17.32 4 18 C0.9375 18.625 0.9375 18.625 -2 19 C-2.33 17.68 -2.66 16.36 -3 15 C-5.61580453 15.46710795 -6.8992964 15.91229041 -8.9375 17.6875 C-9.618125 18.120625 -10.29875 18.55375 -11 19 C-13.6875 18.3125 -13.6875 18.3125 -16 17 C-17.34371016 14.31257967 -16.95015402 12.47935898 -16.6875 9.5 C-16.60886719 8.5203125 -16.53023437 7.540625 -16.44921875 6.53125 C-16 4 -16 4 -14 2 C-13.01 2 -12.02 2 -11 2 C-10.34 3.98 -9.68 5.96 -9 8 C-8.401875 7.690625 -7.80375 7.38125 -7.1875 7.0625 C-5 6 -5 6 -2 5 C-0.78130071 2.49552484 -0.78130071 2.49552484 0 0 Z " fill="#4A157C" transform="translate(1078,570)"/>
<path d="M0 0 C4.96378429 1.24094607 7.28296649 2.633339 10 7 C10.84927917 9.32586683 11.43082593 11.5810102 12 14 C12.33 10.37 12.66 6.74 13 3 C18.75 2.875 18.75 2.875 21 4 C21.33 3.34 21.66 2.68 22 2 C23.9609375 2.71484375 23.9609375 2.71484375 26 4 C26.5390625 6.12890625 26.5390625 6.12890625 26.625 8.5625 C26.68524737 10.93592047 26.68524737 10.93592047 27 13 C27.66 13.33 28.32 13.66 29 14 C26.0649409 15.56991533 23.54060687 16.90170784 20.25 17.5 C17.62647138 17.81072879 17.62647138 17.81072879 16 21 C14.0625 20.625 14.0625 20.625 12 20 C11.67 19.34 11.34 18.68 11 18 C10.67 18.66 10.34 19.32 10 20 C5.19023325 21.16097818 2.34993676 21.57481041 -2 19.0625 C-2.99 18.381875 -3.98 17.70125 -5 17 C-4.85866501 15.22880197 -4.71176792 13.45804713 -4.5625 11.6875 C-4.48128906 10.70136719 -4.40007812 9.71523438 -4.31640625 8.69921875 C-3.84661142 4.69146284 -2.93574533 2.68046312 0 0 Z " fill="#511A87" transform="translate(1123,568)"/>
<path d="M0 0 C2.25 2.125 2.25 2.125 3.25 4.125 C1 6.1875 1 6.1875 -1.75 8.125 C-3.6640625 7.765625 -3.6640625 7.765625 -5.75 7.125 C-12.00375829 6.38282246 -16.69472807 7.55568486 -22.390625 10.15234375 C-24.89099581 11.18312576 -27.05680689 11.84775953 -29.75 12.125 C-30.74 11.465 -31.73 10.805 -32.75 10.125 C-32.58203125 7.828125 -32.58203125 7.828125 -31.75 5.125 C-29.38671875 3.359375 -29.38671875 3.359375 -26.4375 1.875 C-24.98923828 1.12476562 -24.98923828 1.12476562 -23.51171875 0.359375 C-16.77217428 -2.65292493 -6.47006035 -4.24499081 0 0 Z " fill="#F7F1F8" transform="translate(652.75,109.875)"/>
<path d="M0 0 C-0.33 1.65 -0.66 3.3 -1 5 C0.32 5.33 1.64 5.66 3 6 C2.43457996 7.32031595 1.84693528 8.6311301 1.25 9.9375 C0.92515625 10.66839844 0.6003125 11.39929688 0.265625 12.15234375 C-1 14 -1 14 -3.015625 14.81640625 C-5 15 -5 15 -7 14 C-7.33 14.99 -7.66 15.98 -8 17 C-8.66 17 -9.32 17 -10 17 C-10.28875 17.61875 -10.5775 18.2375 -10.875 18.875 C-12 21 -12 21 -14 23 C-14.66 23 -15.32 23 -16 23 C-16 22.01 -16 21.02 -16 20 C-16.928125 20.5259375 -16.928125 20.5259375 -17.875 21.0625 C-18.926875 21.5265625 -18.926875 21.5265625 -20 22 C-20.66 21.67 -21.32 21.34 -22 21 C-22 17.7 -22 14.4 -22 11 C-20.68 11 -19.36 11 -18 11 C-17.67 11.66 -17.34 12.32 -17 13 C-16.67 12.34 -16.34 11.68 -16 11 C-14.35 11.33 -12.7 11.66 -11 12 C-10.67 10.68 -10.34 9.36 -10 8 C-9.01 8 -8.02 8 -7 8 C-6.67 7.67 -6.34 7.34 -6 7 C-7.32 6.67 -8.64 6.34 -10 6 C-10 5.34 -10 4.68 -10 4 C-8.68 4 -7.36 4 -6 4 C-6 3.34 -6 2.68 -6 2 C-2.25 0 -2.25 0 0 0 Z " fill="#48157A" transform="translate(1057,577)"/>
<path d="M0 0 C0.99 0.99 1.98 1.98 3 3 C2.34 4.32 1.68 5.64 1 7 C1.66 7 2.32 7 3 7 C3 7.99 3 8.98 3 10 C3.66 10 4.32 10 5 10 C5 13.96 5 17.92 5 22 C3.02 21.34 1.04 20.68 -1 20 C-1 18.35 -1 16.7 -1 15 C-2.98 15.99 -2.98 15.99 -5 17 C-5.33 16.34 -5.66 15.68 -6 15 C-6.66 14.67 -7.32 14.34 -8 14 C-7.98715056 10.57562432 -7.84790835 7.3272353 -7 4 C-4 1.9375 -4 1.9375 -1 1 C-0.67 0.67 -0.34 0.34 0 0 Z " fill="#461376" transform="translate(1029,574)"/>
<path d="M0 0 C0.66 0 1.32 0 2 0 C3.50519387 2.62214328 5.00431319 5.24744208 6.5 7.875 C6.92925781 8.62136719 7.35851562 9.36773437 7.80078125 10.13671875 C8.20683594 10.85214844 8.61289062 11.56757813 9.03125 12.3046875 C9.40830078 12.96452637 9.78535156 13.62436523 10.17382812 14.30419922 C11 16 11 16 11 18 C8.89551062 17.85890014 6.7914123 17.71195825 4.6875 17.5625 C3.51574219 17.48128906 2.34398437 17.40007812 1.13671875 17.31640625 C-2 17 -2 17 -5 16 C-3.90301833 10.30860098 -2.45946923 5.25432063 0 0 Z " fill="#2D1741" transform="translate(566,200)"/>
<path d="M0 0 C3.45432283 3.12441559 4.89301928 6.51977883 6 11 C5.6875 14 5.6875 14 5 16 C-0.07476794 17.26305335 -4.72796354 18.27036084 -10 18 C-8.47146065 13.72813475 -6.28490519 10.00673137 -3.875 6.1875 C-3.50246094 5.59001953 -3.12992188 4.99253906 -2.74609375 4.37695312 C-1.8342952 2.91573749 -0.91764024 1.45755415 0 0 Z " fill="#25123E" transform="translate(643,200)"/>
<path d="M0 0 C1.05445313 0.00515625 2.10890625 0.0103125 3.1953125 0.015625 C4.76925781 0.00789062 4.76925781 0.00789062 6.375 0 C9.23630361 0.2580486 10.89308159 0.7881801 13.3203125 2.265625 C12.9903125 3.255625 12.6603125 4.245625 12.3203125 5.265625 C10.3403125 5.265625 8.3603125 5.265625 6.3203125 5.265625 C6.3409375 6.4825 6.3615625 7.699375 6.3828125 8.953125 C6.38855366 12.18539822 6.10797565 15.11497241 5.3203125 18.265625 C4.0003125 18.265625 2.6803125 18.265625 1.3203125 18.265625 C0.33782726 14.2128734 0.23871676 10.42700763 0.3203125 6.265625 C-0.3190625 6.1625 -0.9584375 6.059375 -1.6171875 5.953125 C-2.2978125 5.72625 -2.9784375 5.499375 -3.6796875 5.265625 C-4.0096875 4.275625 -4.3396875 3.285625 -4.6796875 2.265625 C-2.6796875 0.265625 -2.6796875 0.265625 0 0 Z " fill="#531B8B" transform="translate(1154.6796875,569.734375)"/>
<path d="M0 0 C5.28 0.66 10.56 1.32 16 2 C15.26282303 6.4230618 14.60731663 9.38898611 12.9375 13.375 C12.57527344 14.24898437 12.21304688 15.12296875 11.83984375 16.0234375 C11.56269531 16.67570312 11.28554688 17.32796875 11 18 C8.05966118 15.40240006 6.32326658 12.3825224 4.375 9 C3.76398437 7.948125 3.15296875 6.89625 2.5234375 5.8125 C1 3 1 3 0 0 Z " fill="#281441" transform="translate(633,162)"/>
<path d="M0 0 C-1.47848998 3.99192294 -3.36185122 7.5716593 -5.5 11.25 C-6.1084375 12.30703125 -6.716875 13.3640625 -7.34375 14.453125 C-9 17 -9 17 -11 18 C-12.65 13.05 -14.3 8.1 -16 3 C-10.47499418 0.78999767 -5.92139256 -0.1741586 0 0 Z " fill="#271242" transform="translate(577,162)"/>
<path d="M0 0 C1.2065625 0.0309375 1.2065625 0.0309375 2.4375 0.0625 C2.1075 0.7225 1.7775 1.3825 1.4375 2.0625 C0.4475 2.0625 -0.5425 2.0625 -1.5625 2.0625 C-1.5625 23.5125 -1.5625 44.9625 -1.5625 67.0625 C-2.2225 67.0625 -2.8825 67.0625 -3.5625 67.0625 C-3.58562635 58.4744428 -3.60341658 49.88639851 -3.61431217 41.29831791 C-3.61954036 37.310928 -3.62663684 33.32355933 -3.63793945 29.33618164 C-3.64877061 25.49124886 -3.65477732 21.64633655 -3.65737724 17.80138969 C-3.65923108 16.33131017 -3.66285091 14.86123182 -3.66823006 13.39116096 C-3.67544355 11.33895533 -3.67649081 9.28683533 -3.67602539 7.23461914 C-3.678246 6.06435684 -3.68046661 4.89409454 -3.68275452 3.68836975 C-3.52270811 0.19360687 -3.49558082 0.08525807 0 0 Z " fill="#18052A" transform="translate(536.5625,344.9375)"/>
<path d="M0 0 C6.6 0 13.2 0 20 0 C18.43108518 3.13782964 16.97689907 5.50839252 14.875 8.25 C14.33617187 8.95640625 13.79734375 9.6628125 13.2421875 10.390625 C12.83226562 10.92171875 12.42234375 11.4528125 12 12 C8.95933939 11.67127993 8.01097527 11.01153605 5.859375 8.75 C5.16328125 7.8425 4.4671875 6.935 3.75 6 C3.04359375 5.0925 2.3371875 4.185 1.609375 3.25 C0 1 0 1 0 0 Z " fill="#220E3B" transform="translate(595,228)"/>
<path d="M0 0 C3.387199 1.4388102 5.3594104 3.22119499 7.75 6 C8.67039062 7.051875 8.67039062 7.051875 9.609375 8.125 C11 10 11 10 11 12 C4.4 12 -2.2 12 -9 12 C-6.96719098 8.61198496 -5.3456602 6.05841489 -2.8125 3.1875 C-2.28269531 2.58292969 -1.75289062 1.97835937 -1.20703125 1.35546875 C-0.80871094 0.90816406 -0.41039062 0.46085938 0 0 Z " fill="#2A0F42" transform="translate(604,140)"/>
<path d="M0 0 C4.92314194 1.23078549 7.26518192 2.68740225 10 7 C10 7.99 10 8.98 10 10 C8.02 10 6.04 10 4 10 C4.495 10.78375 4.99 11.5675 5.5 12.375 C7 15 7 15 7 17 C4.69 16.34 2.38 15.68 0 15 C-0.33 13.35 -0.66 11.7 -1 10 C-1.66 10 -2.32 10 -3 10 C-3.36923077 3.47692308 -3.36923077 3.47692308 -1.5 1.0625 C-1.005 0.711875 -0.51 0.36125 0 0 Z " fill="#4B147D" transform="translate(1123,568)"/>
<path d="M0 0 C0.99 0.33 1.98 0.66 3 1 C3 1.99 3 2.98 3 4 C5.31 4.33 7.62 4.66 10 5 C9.67 6.32 9.34 7.64 9 9 C9.66 9.33 10.32 9.66 11 10 C10.4375 11.9375 10.4375 11.9375 9 14 C5.5625 14.9375 5.5625 14.9375 2 15 C-0.65698817 13.25921465 -1.71820382 10.85939148 -3 8 C-2.01 7.67 -1.02 7.34 0 7 C0 4.69 0 2.38 0 0 Z " fill="#421070" transform="translate(1046,562)"/>
<path d="M0 0 C0.99 0 1.98 0 3 0 C3.99 2.64 4.98 5.28 6 8 C5.01 8 4.02 8 3 8 C3 7.34 3 6.68 3 6 C2.34 6 1.68 6 1 6 C0.67 8.97 0.34 11.94 0 15 C3.057952 13.26440562 5.63379989 11.61527381 8 9 C9.32 9.66 10.64 10.32 12 11 C11.67 11.66 11.34 12.32 11 13 C10.401875 13.144375 9.80375 13.28875 9.1875 13.4375 C6.86913649 13.85940447 6.86913649 13.85940447 5.0625 15.6875 C4.381875 16.120625 3.70125 16.55375 3 17 C0.3125 16.3125 0.3125 16.3125 -2 15 C-3.34371016 12.31257967 -2.95015402 10.47935898 -2.6875 7.5 C-2.60886719 6.5203125 -2.53023437 5.540625 -2.44921875 4.53125 C-2 2 -2 2 0 0 Z " fill="#441277" transform="translate(1064,572)"/>
<path d="M0 0 C2.475 0.99 2.475 0.99 5 2 C4.67 2.66 4.34 3.32 4 4 C2.02 4 0.04 4 -2 4 C-0.68 4.33 0.64 4.66 2 5 C2 6.32 2 7.64 2 9 C-0.64 9.66 -3.28 10.32 -6 11 C-6 9.35 -6 7.7 -6 6 C-6.66 6 -7.32 6 -8 6 C-8 4.35 -8 2.7 -8 1 C-2.25 0.875 -2.25 0.875 0 2 C0 1.34 0 0.68 0 0 Z " fill="#4D147D" transform="translate(1144,570)"/>
<path d="M0 0 C1.05445313 0.00515625 2.10890625 0.0103125 3.1953125 0.015625 C4.76925781 0.00789062 4.76925781 0.00789062 6.375 0 C9.23630361 0.2580486 10.89308159 0.7881801 13.3203125 2.265625 C12.9903125 3.255625 12.6603125 4.245625 12.3203125 5.265625 C11.6603125 4.935625 11.0003125 4.605625 10.3203125 4.265625 C10.3203125 3.605625 10.3203125 2.945625 10.3203125 2.265625 C5.8653125 2.760625 5.8653125 2.760625 1.3203125 3.265625 C1.6503125 3.925625 1.9803125 4.585625 2.3203125 5.265625 C2.39124092 7.4729173 2.40446275 9.68229952 2.3828125 11.890625 C2.37378906 13.07914063 2.36476563 14.26765625 2.35546875 15.4921875 C2.34386719 16.40742187 2.33226562 17.32265625 2.3203125 18.265625 C-0.08170254 14.06682706 0.16167101 11.02486959 0.3203125 6.265625 C-0.3190625 6.1625 -0.9584375 6.059375 -1.6171875 5.953125 C-2.2978125 5.72625 -2.9784375 5.499375 -3.6796875 5.265625 C-4.0096875 4.275625 -4.3396875 3.285625 -4.6796875 2.265625 C-2.6796875 0.265625 -2.6796875 0.265625 0 0 Z " fill="#4D177F" transform="translate(1154.6796875,569.734375)"/>
<path d="M0 0 C2.64 0 5.28 0 8 0 C8.38133299 1.9914056 8.71325582 3.99279077 9 6 C8 7 8 7 5.71484375 7.09765625 C4.34005859 7.08025391 4.34005859 7.08025391 2.9375 7.0625 C2.01839844 7.05347656 1.09929687 7.04445313 0.15234375 7.03515625 C-0.55792969 7.02355469 -1.26820312 7.01195312 -2 7 C-1.67 6.401875 -1.34 5.80375 -1 5.1875 C0.20787988 2.94613529 0.20787988 2.94613529 0 0 Z " fill="#541C8B" transform="translate(1093,580)"/>
<path d="M0 0 C0.66 0 1.32 0 2 0 C0.62809716 4.93885023 -1.71362883 6.3945587 -6 9 C-7.68083079 10.31543279 -9.3524116 11.64316249 -11 13 C-11 10.03 -11 7.06 -11 4 C-9.9275 4.0825 -8.855 4.165 -7.75 4.25 C-3.96533931 4.37585669 -3.96533931 4.37585669 -1.6875 2 C-1.130625 1.34 -0.57375 0.68 0 0 Z " fill="#200F3B" transform="translate(729,376)"/>
<path d="M0 0 C0.33 0 0.66 0 1 0 C1 4.62 1 9.24 1 14 C-4 13 -4 13 -5.8125 11.0625 C-7 9 -7 9 -7 7 C-5 7 -5 7 -3.375 8.5 C-2.92125 8.995 -2.4675 9.49 -2 10 C-2 7.36 -2 4.72 -2 2 C-1.34 2 -0.68 2 0 2 C0 1.34 0 0.68 0 0 Z " fill="#521B8A" transform="translate(1080,572)"/>
<path d="M0 0 C0.99 0.33 1.98 0.66 3 1 C3.33 5.62 3.66 10.24 4 15 C2.68 15.33 1.36 15.66 0 16 C0 10.72 0 5.44 0 0 Z " fill="#4F1683" transform="translate(1084,572)"/>
<path d="M0 0 C2.52370777 2.29427979 3.38262276 3.76524552 5 7 C-3.58 7 -12.16 7 -21 7 C-21.33 6.34 -21.66 5.68 -22 5 C-15.4 5 -8.8 5 -2 5 C-1.34 3.35 -0.68 1.7 0 0 Z " fill="#D9C7E3" transform="translate(682,448)"/>
<path d="M0 0 C1.32 0.99 2.64 1.98 4 3 C4 3.99 4 4.98 4 6 C3.01 6 2.02 6 1 6 C1 13.59 1 21.18 1 29 C0.67 29 0.34 29 0 29 C0 19.43 0 9.86 0 0 Z " fill="#1E0A34" transform="translate(718,446)"/>
<path d="M0 0 C3.3 0 6.6 0 10 0 C10 0.33 10 0.66 10 1 C7.69 1.33 5.38 1.66 3 2 C2.06380187 5.15506142 1.8942877 7.96586502 1.9375 11.25 C1.94652344 12.14203125 1.95554687 13.0340625 1.96484375 13.953125 C1.97644531 14.62859375 1.98804688 15.3040625 2 16 C3.32 16.66 4.64 17.32 6 18 C4.02 18 2.04 18 0 18 C0 12.06 0 6.12 0 0 Z " fill="#1F0B32" transform="translate(558,370)"/>
<path d="M0 0 C0.99 0.33 1.98 0.66 3 1 C2.67 1.99 2.34 2.98 2 4 C1.34 4 0.68 4 0 4 C0 6.64 0 9.28 0 12 C-0.99 11.67 -1.98 11.34 -3 11 C-3.33 10.34 -3.66 9.68 -4 9 C-4.99 8.34 -5.98 7.68 -7 7 C-5.824375 6.6596875 -5.824375 6.6596875 -4.625 6.3125 C-1.78125 5.21875 -1.78125 5.21875 -0.6875 2.375 C-0.460625 1.59125 -0.23375 0.8075 0 0 Z " fill="#43106F" transform="translate(1078,570)"/>
<path d="M0 0 C-0.33 1.65 -0.66 3.3 -1 5 C-1.639375 5.12375 -2.27875 5.2475 -2.9375 5.375 C-3.9584375 5.684375 -3.9584375 5.684375 -5 6 C-5.33 6.66 -5.66 7.32 -6 8 C-6.66 8 -7.32 8 -8 8 C-7.63487253 5.2980567 -7.30130763 3.41609148 -5.6875 1.1875 C-4 0 -4 0 0 0 Z " fill="#420F6F" transform="translate(1032,583)"/>
<path d="M0 0 C7.59 0 15.18 0 23 0 C23 0.33 23 0.66 23 1 C22.41508789 1.01981934 21.83017578 1.03963867 21.22753906 1.06005859 C18.56791975 1.15553481 15.90906162 1.26512142 13.25 1.375 C12.32960938 1.4059375 11.40921875 1.436875 10.4609375 1.46875 C9.57148437 1.50742187 8.68203125 1.54609375 7.765625 1.5859375 C6.94868164 1.6173584 6.13173828 1.6487793 5.29003906 1.68115234 C2.83167042 2.02343693 1.14240001 2.7739277 -1 4 C-0.67 2.68 -0.34 1.36 0 0 Z " fill="#31124D" transform="translate(662,504)"/>
<path d="M0 0 C0.66 0.33 1.32 0.66 2 1 C1.43457996 2.32031595 0.84693528 3.6311301 0.25 4.9375 C-0.07484375 5.66839844 -0.3996875 6.39929688 -0.734375 7.15234375 C-2 9 -2 9 -4.140625 9.75390625 C-5.06101562 9.87572266 -5.06101562 9.87572266 -6 10 C-5.34 9.67 -4.68 9.34 -4 9 C-4.33 8.01 -4.66 7.02 -5 6 C-8.00847418 4.77479736 -8.00847418 4.77479736 -11 4 C-10.34 3.34 -9.68 2.68 -9 2 C-7.576875 2.495 -7.576875 2.495 -6.125 3 C-3.22937548 4.10159191 -3.22937548 4.10159191 -1 4 C-0.67 2.68 -0.34 1.36 0 0 Z " fill="#451272" transform="translate(1058,582)"/>
<path d="M0 0 C0.99 0.33 1.98 0.66 3 1 C3.36923077 7.52307692 3.36923077 7.52307692 1.5 9.9375 C1.005 10.288125 0.51 10.63875 0 11 C-1 10 -1 10 -1.125 6.625 C-1 3 -1 3 0 0 Z " fill="#431174" transform="translate(1042,559)"/>
<path d="M0 0 C0.33 0.66 0.66 1.32 1 2 C0.06421005 4.35981813 -0.93347808 6.69631264 -2 9 C-1.01 9.33 -0.02 9.66 1 10 C0.67 10.99 0.34 11.98 0 13 C-1.98 11.35 -3.96 9.7 -6 8 C-4.02 5.36 -2.04 2.72 0 0 Z " fill="#301D43" transform="translate(617,239)"/>
<path d="M0 0 C1.98 0 3.96 0 6 0 C5.01773438 0.44279297 5.01773438 0.44279297 4.015625 0.89453125 C1.1929493 3.84302389 1.58821176 6.05773574 1.6484375 10.01757812 C1.68195312 10.89865234 1.71546875 11.77972656 1.75 12.6875 C1.76804687 13.58017578 1.78609375 14.47285156 1.8046875 15.39257812 C1.85182241 17.59613504 1.91759343 19.79752601 2 22 C1.34 22 0.68 22 0 22 C0 14.74 0 7.48 0 0 Z " fill="#261036" transform="translate(558,411)"/>
<path d="M0 0 C-1.2441204 4.9764816 -2.73399064 7.15599376 -7 10 C-8.31138904 10.70885894 -9.63777017 11.39456452 -11 12 C-9.56438314 8.81293058 -7.79733671 6.37830895 -5.5 3.75 C-4.8915625 3.04359375 -4.283125 2.3371875 -3.65625 1.609375 C-2 0 -2 0 0 0 Z " fill="#26123F" transform="translate(698,198)"/>
<path d="M0 0 C-0.5625 1.9375 -0.5625 1.9375 -2 4 C-5.625 4.75 -5.625 4.75 -9 5 C-8 2 -8 2 -5.625 0.25 C-3 -1 -3 -1 0 0 Z " fill="#491779" transform="translate(1057,572)"/>
<path d="M0 0 C2.49609375 -0.36328125 2.49609375 -0.36328125 5.4375 -0.3125 C6.40558594 -0.30863281 7.37367188 -0.30476563 8.37109375 -0.30078125 C11 0 11 0 14 2 C6.08 2.495 6.08 2.495 -2 3 C-1.34 2.01 -0.68 1.02 0 0 Z " fill="#210931" transform="translate(733,376)"/>
<path d="M0 0 C3.09305422 0.60903059 5.19639762 1.59868803 7.75 3.4375 C8.36359375 3.86933594 8.9771875 4.30117188 9.609375 4.74609375 C10.29773438 5.36677734 10.29773438 5.36677734 11 6 C11 6.66 11 7.32 11 8 C9.35 8 7.7 8 6 8 C6 7.34 6 6.68 6 6 C4.68 5.34 3.36 4.68 2 4 C2 3.01 2 2.02 2 1 C1.34 0.67 0.68 0.34 0 0 Z " fill="#231036" transform="translate(606,255)"/>
<path d="M0 0 C0 0.66 0 1.32 0 2 C-0.7425 2.2475 -1.485 2.495 -2.25 2.75 C-5.20124062 4.09147301 -6.84814974 5.60905526 -9 8 C-9.66 7.67 -10.32 7.34 -11 7 C-10.875 5.1875 -10.875 5.1875 -10 3 C-6.32115375 0.71094011 -4.38448044 0 0 0 Z " fill="#4C197D" transform="translate(1032,581)"/>
<path d="M0 0 C2.02045442 0.60183749 4.02111039 1.27306096 6 2 C6.33 2.66 6.66 3.32 7 4 C3.38026598 5.31626692 0.90432869 6 -3 6 C-3 3 -3 3 -1.5 1.3125 C-0.7575 0.6628125 -0.7575 0.6628125 0 0 Z " fill="#41106C" transform="translate(1123,568)"/>
<path d="M0 0 C0.66 0 1.32 0 2 0 C0.44298069 4.67105792 -2.08447373 8.08705685 -5 12 C-5.66 11.34 -6.32 10.68 -7 10 C-6.401875 9.278125 -5.80375 8.55625 -5.1875 7.8125 C-2.9647189 5.08685797 -2.9647189 5.08685797 -1.375 2.1875 C-0.694375 1.1046875 -0.694375 1.1046875 0 0 Z " fill="#221336" transform="translate(632,415)"/>
<path d="M0 0 C0 0.66 0 1.32 0 2 C1.32 1.67 2.64 1.34 4 1 C3.67 1.66 3.34 2.32 3 3 C-2.94 2.67 -8.88 2.34 -15 2 C-15 1.67 -15 1.34 -15 1 C-9.92928099 0.28832014 -5.11791642 -0.10662326 0 0 Z " fill="#220C37" transform="translate(831,376)"/>
<path d="M0 0 C0.33 0 0.66 0 1 0 C1.2226746 1.43534841 1.42761906 2.87345525 1.625 4.3125 C1.74101563 5.11300781 1.85703125 5.91351563 1.9765625 6.73828125 C2 9 2 9 0 12 C0.66 12 1.32 12 2 12 C1.67 13.32 1.34 14.64 1 16 C0.01 16 -0.98 16 -2 16 C-1.34 10.72 -0.68 5.44 0 0 Z " fill="#1E0738" transform="translate(662,143)"/>
<path d="M0 0 C2 1 2 1 3.1875 3.3125 C4.03624754 6.11989571 3.99928333 7.301935 3 10 C2.01 10 1.02 10 0 10 C0 6.7 0 3.4 0 0 Z " fill="#501B8D" transform="translate(1064,577)"/>
<path d="M0 0 C1.8587516 3.1241325 2.20151847 5.09317534 1.75 8.6875 C1.61851563 9.86892578 1.61851563 9.86892578 1.484375 11.07421875 C1.32453125 11.70972656 1.1646875 12.34523438 1 13 C0.01 13.495 0.01 13.495 -1 14 C-1.02685938 11.85423363 -1.04633088 9.70837355 -1.0625 7.5625 C-1.07410156 6.36753906 -1.08570313 5.17257812 -1.09765625 3.94140625 C-1 1 -1 1 0 0 Z " fill="#400D6C" transform="translate(1083,572)"/>
<path d="M0 0 C0.99 0.33 1.98 0.66 3 1 C0.525 4.465 0.525 4.465 -2 8 C-2.99 7.34 -3.98 6.68 -5 6 C-4.67 4.68 -4.34 3.36 -4 2 C-3.01 2 -2.02 2 -1 2 C-0.67 1.34 -0.34 0.68 0 0 Z " fill="#25153E" transform="translate(650,389)"/>
<path d="M0 0 C2.31 0.33 4.62 0.66 7 1 C7.33 2.32 7.66 3.64 8 5 C5.23723823 4.47731534 2.6739124 3.89130413 0 3 C0 2.01 0 1.02 0 0 Z " fill="#4E1A81" transform="translate(1046,586)"/>
<path d="M0 0 C0.66 0 1.32 0 2 0 C2.33 0.99 2.66 1.98 3 3 C3.99 3 4.98 3 6 3 C4.25 7.875 4.25 7.875 2 9 C0.50178941 5.62902617 0 3.79557881 0 0 Z " fill="#2E1E40" transform="translate(564,171)"/>
<path d="M0 0 C0.99 0.33 1.98 0.66 3 1 C3 3.97 3 6.94 3 10 C2.01 9.34 1.02 8.68 0 8 C-0.40843923 5.28796348 -0.13336867 2.7562858 0 0 Z " fill="#481679" transform="translate(1046,562)"/>
<path d="M0 0 C0.99 0 1.98 0 3 0 C3 2.64 3 5.28 3 8 C2.01 8.33 1.02 8.66 0 9 C0 6.03 0 3.06 0 0 Z " fill="#4F1C87" transform="translate(1036,588)"/>
<path d="M0 0 C2.31 0.33 4.62 0.66 7 1 C6.34 3.31 5.68 5.62 5 8 C3 4.25 3 4.25 3 2 C2.01 2 1.02 2 0 2 C0 1.34 0 0.68 0 0 Z " fill="#24133A" transform="translate(544,220)"/>
<path d="M0 0 C1.125 3.75 1.125 3.75 0 6 C-3.3 5.67 -6.6 5.34 -10 5 C-10 4.67 -10 4.34 -10 4 C-8.906875 3.896875 -7.81375 3.79375 -6.6875 3.6875 C-3.14440371 3.02692273 -2.06756277 2.7972908 0 0 Z " fill="#4A3659" transform="translate(652,151)"/>
<path d="M0 0 C1.65 0.33 3.3 0.66 5 1 C5.33 1.99 5.66 2.98 6 4 C5 5 5 5 1.4375 5.0625 C0.303125 5.041875 -0.83125 5.02125 -2 5 C-1.01 4.67 -0.02 4.34 1 4 C0.67 2.68 0.34 1.36 0 0 Z " fill="#541D87" transform="translate(1112,578)"/>
<path d="M0 0 C0.99 0.33 1.98 0.66 3 1 C2.3125 3.4375 2.3125 3.4375 1 6 C-1.625 6.8125 -1.625 6.8125 -4 7 C-2.68 4.69 -1.36 2.38 0 0 Z " fill="#2A1742" transform="translate(669,402)"/>
<path d="M0 0 C0.33 0 0.66 0 1 0 C1 1.65 1 3.3 1 5 C0.01 5 -0.98 5 -2 5 C-2 5.66 -2 6.32 -2 7 C-3.65 6.67 -5.3 6.34 -7 6 C-3.25 3 -3.25 3 -1 3 C-0.67 2.01 -0.34 1.02 0 0 Z " fill="#3A0D67" transform="translate(1037,558)"/>
<path d="M0 0 C0.66 0 1.32 0 2 0 C1.67 1.32 1.34 2.64 1 4 C0.34 4 -0.32 4 -1 4 C-1.12375 4.639375 -1.2475 5.27875 -1.375 5.9375 C-1.58125 6.618125 -1.7875 7.29875 -2 8 C-2.99 8.495 -2.99 8.495 -4 9 C-2.25 2.25 -2.25 2.25 0 0 Z " fill="#210836" transform="translate(858,434)"/>
<path d="M0 0 C0.66 0.99 1.32 1.98 2 3 C1.01 4.98 0.02 6.96 -1 9 C-1.99 9 -2.98 9 -4 9 C-2.80100302 5.9168649 -1.52299523 2.93720508 0 0 Z " fill="#1F0C36" transform="translate(397,382)"/>
<path d="M0 0 C5.28 0 10.56 0 16 0 C15.67 0.99 15.34 1.98 15 3 C14.34 3 13.68 3 13 3 C13 2.34 13 1.68 13 1 C8.71 1 4.42 1 0 1 C0 0.67 0 0.34 0 0 Z " fill="#1E0C30" transform="translate(599,228)"/>
<path d="M0 0 C2 1.8125 2 1.8125 4 4 C4 4.99 4 5.98 4 7 C2.125 6.75 2.125 6.75 0 6 C-1.25 3.9375 -1.25 3.9375 -2 2 C-1.34 1.34 -0.68 0.68 0 0 Z " fill="#491576" transform="translate(1135,582)"/>
<path d="M0 0 C2.5 1.3125 2.5 1.3125 5 3 C5 3.99 5 4.98 5 6 C3.68 5.67 2.36 5.34 1 5 C0.67 3.35 0.34 1.7 0 0 Z " fill="#561E86" transform="translate(1120,581)"/>
<path d="M0 0 C1.98 0 3.96 0 6 0 C6 1.32 6 2.64 6 4 C4.68 4.33 3.36 4.66 2 5 C2 3.68 2 2.36 2 1 C1.34 0.67 0.68 0.34 0 0 Z " fill="#450C70" transform="translate(1140,575)"/>
<path d="M0 0 C-0.25 1.875 -0.25 1.875 -1 4 C-3.0625 5.25 -3.0625 5.25 -5 6 C-5.66 5.34 -6.32 4.68 -7 4 C-2.25 0 -2.25 0 0 0 Z " fill="#27123B" transform="translate(605,254)"/>
<path d="M0 0 C0.66 0.33 1.32 0.66 2 1 C0.375 7.75 0.375 7.75 -3 10 C-2.69201674 8.51988629 -2.378482 7.04092675 -2.0625 5.5625 C-1.88847656 4.73878906 -1.71445312 3.91507813 -1.53515625 3.06640625 C-1 1 -1 1 0 0 Z " fill="#3B2B55" transform="translate(657,167)"/>
<path d="M0 0 C0.66 0 1.32 0 2 0 C0.83857315 4.35535069 -0.07699505 6.64619703 -4 9 C-2.80100302 5.9168649 -1.52299523 2.93720508 0 0 Z " fill="#2F1B45" transform="translate(405,426)"/>
<path d="M0 0 C0.33 0 0.66 0 1 0 C1.36625971 4.51720311 1.36625971 4.51720311 -0.375 6.8125 C-2 8 -2 8 -4 8 C-2.87548273 5.0280615 -1.77706209 2.66559313 0 0 Z " fill="#331E42" transform="translate(425,394)"/>
<path d="M0 0 C1.5 1.3125 1.5 1.3125 3 3 C3 3.99 3 4.98 3 6 C1.35 6 -0.3 6 -2 6 C-1.34 4.02 -0.68 2.04 0 0 Z " fill="#EAE2E9" transform="translate(682,448)"/>
<path d="M0 0 C0.66 0.33 1.32 0.66 2 1 C2 2.65 2 4.3 2 6 C0.68 5.34 -0.64 4.68 -2 4 C-2 3.01 -2 2.02 -2 1 C-1.34 0.67 -0.68 0.34 0 0 Z " fill="#1E0933" transform="translate(670,424)"/>
<path d="M0 0 C2 1.75 2 1.75 4 4 C4 5.32 4 6.64 4 8 C3.34 8 2.68 8 2 8 C0.74335022 5.09399739 0 3.20395416 0 0 Z " fill="#210F30" transform="translate(455,412)"/>
<path d="M0 0 C0.33 0.99 0.66 1.98 1 3 C0.34 3 -0.32 3 -1 3 C-1.33 3.99 -1.66 4.98 -2 6 C-2.66 5.67 -3.32 5.34 -4 5 C-2.25 1.125 -2.25 1.125 0 0 Z M-6 5 C-5.01 5.495 -5.01 5.495 -4 6 C-4.99 6.495 -4.99 6.495 -6 7 C-6 6.34 -6 5.68 -6 5 Z " fill="#1B0433" transform="translate(782,413)"/>
<path d="M0 0 C1.9375 0.3125 1.9375 0.3125 4 1 C4.33 1.99 4.66 2.98 5 4 C5.99 4.66 6.98 5.32 8 6 C7.01 6.495 7.01 6.495 6 7 C3 6 3 6 1.3125 2.9375 C0.879375 1.968125 0.44625 0.99875 0 0 Z " fill="#1F0C33" transform="translate(636,380)"/>
<path d="M0 0 C1.65 0 3.3 0 5 0 C4.01 0.495 4.01 0.495 3 1 C3.99 1.99 4.98 2.98 6 4 C5.67 4.99 5.34 5.98 5 7 C2.47411298 4.63707344 1.11179163 3.33537489 0 0 Z " fill="#F1E8F3" transform="translate(610,380)"/>
<path d="M0 0 C0 3 0 3 -1 5 C-0.34 5.33 0.32 5.66 1 6 C0.01 6.33 -0.98 6.66 -2 7 C-2.33 5.02 -2.66 3.04 -3 1 C-2.01 0.67 -1.02 0.34 0 0 Z " fill="#481673" transform="translate(1123,12)"/>
<path d="M0 0 C2.95409701 1.37154504 5.44008376 2.98863724 8 5 C6.02 5 4.04 5 2 5 C1.34 3.35 0.68 1.7 0 0 Z " fill="#1A0B2C" transform="translate(553,267)"/>
<path d="M0 0 C0.99 0.99 1.98 1.98 3 3 C2.67 3.66 2.34 4.32 2 5 C-0.5625 5.625 -0.5625 5.625 -3 6 C-1.125 1.125 -1.125 1.125 0 0 Z " fill="#352949" transform="translate(643,200)"/>
</svg>
